<svg width="186" height="40" viewBox="0 0 186 40" fill="none" xmlns="http://www.w3.org/2000/svg">
<path d="M131.279 0H0V39.9603H131.279V0Z" fill="#BD292E"/>
<path d="M184.879 0H131.276V39.9603H184.879V0Z" fill="#F9AE31"/>
<path d="M6.48889 8.43967H15.2558C16.8029 8.43967 18.198 8.71074 19.4377 9.25289C20.6806 9.79504 21.6691 10.6182 22.4062 11.719C23.1434 12.8198 23.5104 14.2017 23.5104 15.8578C23.5104 17.5008 23.1434 18.8992 22.4062 20.0496C21.6691 21.2 20.6806 22.076 19.4377 22.681C18.1947 23.2826 16.7996 23.5835 15.2558 23.5835H11.95V32.5521H6.48889V8.43967ZM11.95 19.2727H13.7418C14.4823 19.2727 15.15 19.1636 15.7418 18.9421C16.3335 18.724 16.8029 18.3736 17.1567 17.8909C17.5104 17.4083 17.6856 16.7736 17.6856 15.9835C17.6856 15.1802 17.5071 14.5421 17.1567 14.0727C16.8029 13.6033 16.3302 13.2661 15.7418 13.0578C15.15 12.8496 14.4856 12.7471 13.7418 12.7471H11.95V19.2727Z" fill="white"/>
<path d="M25.8871 20.4793C25.8871 18.7273 26.1979 17.0909 26.8194 15.5736C27.4409 14.0562 28.3103 12.7339 29.4309 11.6C30.5516 10.4661 31.8673 9.58347 33.3782 8.95206C34.8889 8.31735 36.5187 8.0033 38.2741 8.0033C40.0526 8.0033 41.6922 8.32066 43.1964 8.95206C44.7005 9.58677 46.0096 10.4694 47.1236 11.6C48.2377 12.7339 49.1038 14.0562 49.7187 15.5736C50.3336 17.0909 50.641 18.724 50.641 20.4793C50.641 22.2446 50.3435 23.8876 49.7451 25.4016C49.1501 26.919 48.2972 28.2446 47.1865 29.3851C46.079 30.5256 44.7699 31.4083 43.2592 32.043C41.7484 32.6777 40.0856 32.995 38.2707 32.995C36.4195 32.995 34.7369 32.6777 33.2195 32.043C31.702 31.4116 30.3962 30.5256 29.302 29.3851C28.2045 28.2479 27.3615 26.919 26.7731 25.4016C26.1847 23.8843 25.8871 22.2446 25.8871 20.4793ZM31.5698 20.4793C31.5698 21.8545 31.8541 23.1008 32.4194 24.2149C32.9847 25.3289 33.7716 26.2149 34.7765 26.8727C35.7815 27.5306 36.9484 27.8578 38.2741 27.8578C39.603 27.8578 40.7666 27.5306 41.7716 26.8727C42.7765 26.2149 43.5633 25.3289 44.1286 24.2149C44.6939 23.1008 44.9782 21.8545 44.9782 20.4793C44.9782 19.1041 44.6939 17.8612 44.1286 16.7537C43.5633 15.6463 42.7765 14.7603 41.7716 14.0959C40.7666 13.4314 39.5997 13.1008 38.2741 13.1008C36.9451 13.1008 35.7815 13.4347 34.7765 14.0959C33.7716 14.7603 32.9847 15.6463 32.4194 16.7537C31.8541 17.8612 31.5698 19.1008 31.5698 20.4793Z" fill="white"/>
<path d="M74.7663 25.1967L74.7365 25.3587H74.8092L74.7663 25.1967ZM61.6225 25.3554H61.6952L61.6654 25.1934L61.6225 25.3554Z" fill="white"/>
<path d="M83.9071 8.43967L78.3732 32.5521H71.8145L68.2145 17.7587L64.6145 32.5521H58.0228L52.522 8.43967H58.7897L61.6658 25.1967L61.6228 25.3554H61.6922L61.6658 25.1967L66.1484 8.43967H70.2608L74.7666 25.1967L74.7368 25.3554H74.8096L74.7666 25.1967L77.6393 8.43967H83.9071Z" fill="white"/>
<path d="M87.1035 8.43967H102.502V13.2264H92.5481V18.1388H102.413V22.7802H92.5481V27.7653H102.502V32.5521H87.1035V8.43967Z" fill="white"/>
<path d="M106.522 8.43967H116.35C117.751 8.43967 118.998 8.73058 120.096 9.3157C121.193 9.90082 122.059 10.7438 122.697 11.8446C123.335 12.9455 123.656 14.2578 123.656 15.7818C123.656 17.3058 123.385 18.5488 122.843 19.5174C122.3 20.4859 121.652 21.2099 120.895 21.6926C120.138 22.1752 119.441 22.4628 118.796 22.5587L124.661 32.5521H118.522L113.299 22.9785H111.983V32.5521H106.522V8.43967ZM111.983 19.2H114.393C115.368 19.2 116.221 18.962 116.952 18.4893C117.682 18.0132 118.049 17.1736 118.049 15.9669C118.049 14.7603 117.689 13.924 116.972 13.4545C116.254 12.9851 115.408 12.7504 114.433 12.7504H111.986V19.2H111.983Z" fill="white"/>
<path d="M137.156 20.4793C137.156 18.7273 137.467 17.0909 138.089 15.5736C138.71 14.0562 139.58 12.7339 140.7 11.6C141.821 10.4661 143.137 9.58347 144.647 8.95206C146.158 8.31735 147.788 8.0033 149.543 8.0033C151.322 8.0033 152.962 8.32066 154.466 8.95206C155.97 9.58677 157.279 10.4694 158.393 11.6C159.507 12.7339 160.373 14.0562 160.988 15.5736C161.603 17.0909 161.91 18.724 161.91 20.4793C161.91 22.2446 161.613 23.8876 161.014 25.4016C160.419 26.919 159.566 28.2446 158.456 29.3851C157.348 30.5256 156.039 31.4083 154.528 32.043C153.018 32.6777 151.355 32.995 149.54 32.995C147.689 32.995 146.006 32.6777 144.489 32.043C142.971 31.4116 141.666 30.5256 140.572 29.3851C139.474 28.2479 138.631 26.919 138.042 25.4016C137.451 23.8843 137.156 22.2446 137.156 20.4793ZM142.836 20.4793C142.836 21.8545 143.12 23.1008 143.685 24.2149C144.251 25.3289 145.037 26.2149 146.042 26.8727C147.047 27.5306 148.215 27.8578 149.54 27.8578C150.869 27.8578 152.032 27.5306 153.037 26.8727C154.042 26.2149 154.829 25.3289 155.394 24.2149C155.96 23.1008 156.244 21.8545 156.244 20.4793C156.244 19.1041 155.96 17.8612 155.394 16.7537C154.829 15.6463 154.042 14.7603 153.037 14.0959C152.032 13.4314 150.866 13.1008 149.54 13.1008C148.211 13.1008 147.047 13.4347 146.042 14.0959C145.037 14.7603 144.254 15.6463 143.685 16.7537C143.12 17.8612 142.836 19.1008 142.836 20.4793Z" fill="white"/>
<path d="M165.176 8.43967H179.117V13.2264H170.641V18.0859H178.475V22.8529H170.641V32.5521H165.176V8.43967Z" fill="white"/>
</svg>
